<mxfile host="app.diagrams.net" modified="2024-01-30T19:39:11.915Z" agent="Mozilla/5.0 (Windows NT 10.0; Win64; x64) AppleWebKit/537.36 (KHTML, like Gecko) Chrome/121.0.0.0 Safari/537.36" etag="EujDxSoD3esuug9RlKDD" version="23.0.2" type="device">
  <diagram name="Page-1" id="cv4B86Exn-3OW2bgxSDU">
    <mxGraphModel dx="928" dy="1565" grid="1" gridSize="10" guides="1" tooltips="1" connect="1" arrows="1" fold="1" page="1" pageScale="1" pageWidth="850" pageHeight="1100" math="0" shadow="0">
      <root>
        <mxCell id="0" />
        <mxCell id="1" parent="0" />
        <mxCell id="ZZL85fekvjRniKEB7ra7-77" value="" style="rounded=1;whiteSpace=wrap;html=1;align=left;fontSize=9;movable=1;resizable=1;rotatable=1;deletable=1;editable=1;locked=0;connectable=1;" vertex="1" parent="1">
          <mxGeometry x="385" y="-20" width="250" height="430" as="geometry" />
        </mxCell>
        <mxCell id="ZZL85fekvjRniKEB7ra7-10" value="send confirmation email to registrant&amp;nbsp;" style="ellipse;whiteSpace=wrap;html=1;" vertex="1" parent="1">
          <mxGeometry x="450" y="200" width="120" height="80" as="geometry" />
        </mxCell>
        <mxCell id="ZZL85fekvjRniKEB7ra7-11" value="place registrant into a dedicated roster" style="ellipse;whiteSpace=wrap;html=1;" vertex="1" parent="1">
          <mxGeometry x="450" y="310" width="120" height="80" as="geometry" />
        </mxCell>
        <mxCell id="ZZL85fekvjRniKEB7ra7-13" style="edgeStyle=orthogonalEdgeStyle;rounded=0;orthogonalLoop=1;jettySize=auto;html=1;exitX=0.5;exitY=1;exitDx=0;exitDy=0;" edge="1" parent="1" source="ZZL85fekvjRniKEB7ra7-11" target="ZZL85fekvjRniKEB7ra7-11">
          <mxGeometry relative="1" as="geometry" />
        </mxCell>
        <mxCell id="ZZL85fekvjRniKEB7ra7-32" value="" style="endArrow=classic;html=1;rounded=0;exitX=0.5;exitY=0;exitDx=0;exitDy=0;entryX=0.5;entryY=1;entryDx=0;entryDy=0;" edge="1" parent="1" target="ZZL85fekvjRniKEB7ra7-41">
          <mxGeometry width="50" height="50" relative="1" as="geometry">
            <mxPoint x="510" y="200" as="sourcePoint" />
            <mxPoint x="537.04" y="171.03999999999996" as="targetPoint" />
            <Array as="points" />
          </mxGeometry>
        </mxCell>
        <mxCell id="ZZL85fekvjRniKEB7ra7-35" value="&amp;lt;&amp;lt;include&amp;gt;&amp;gt;" style="text;html=1;strokeColor=none;fillColor=none;align=center;verticalAlign=middle;whiteSpace=wrap;rounded=0;" vertex="1" parent="1">
          <mxGeometry x="440" y="170" width="60" height="30" as="geometry" />
        </mxCell>
        <mxCell id="ZZL85fekvjRniKEB7ra7-40" value="register customer" style="ellipse;whiteSpace=wrap;html=1;" vertex="1" parent="1">
          <mxGeometry x="450" y="-10" width="120" height="80" as="geometry" />
        </mxCell>
        <mxCell id="ZZL85fekvjRniKEB7ra7-41" value="read registrant information" style="ellipse;whiteSpace=wrap;html=1;" vertex="1" parent="1">
          <mxGeometry x="450" y="90" width="120" height="80" as="geometry" />
        </mxCell>
        <mxCell id="ZZL85fekvjRniKEB7ra7-42" value="&amp;lt;&amp;lt;include&amp;gt;&amp;gt;" style="text;html=1;strokeColor=none;fillColor=none;align=center;verticalAlign=middle;whiteSpace=wrap;rounded=0;" vertex="1" parent="1">
          <mxGeometry x="430" y="60" width="60" height="30" as="geometry" />
        </mxCell>
        <mxCell id="ZZL85fekvjRniKEB7ra7-47" value="" style="endArrow=classic;html=1;rounded=0;exitX=0.515;exitY=0.99;exitDx=0;exitDy=0;entryX=0.515;entryY=-0.003;entryDx=0;entryDy=0;exitPerimeter=0;entryPerimeter=0;" edge="1" parent="1" source="ZZL85fekvjRniKEB7ra7-10" target="ZZL85fekvjRniKEB7ra7-11">
          <mxGeometry width="50" height="50" relative="1" as="geometry">
            <mxPoint x="550" y="305" as="sourcePoint" />
            <mxPoint x="550" y="275" as="targetPoint" />
            <Array as="points" />
          </mxGeometry>
        </mxCell>
        <mxCell id="ZZL85fekvjRniKEB7ra7-48" value="&amp;lt;&amp;lt;include&amp;gt;&amp;gt;" style="text;html=1;strokeColor=none;fillColor=none;align=center;verticalAlign=middle;whiteSpace=wrap;rounded=0;" vertex="1" parent="1">
          <mxGeometry x="440" y="280" width="60" height="30" as="geometry" />
        </mxCell>
        <mxCell id="ZZL85fekvjRniKEB7ra7-50" value="Customer" style="shape=umlActor;verticalLabelPosition=bottom;verticalAlign=top;html=1;outlineConnect=0;" vertex="1" parent="1">
          <mxGeometry x="310" y="155" width="30" height="60" as="geometry" />
        </mxCell>
        <mxCell id="ZZL85fekvjRniKEB7ra7-56" value="Admin" style="shape=umlActor;verticalLabelPosition=bottom;verticalAlign=top;html=1;outlineConnect=0;" vertex="1" parent="1">
          <mxGeometry x="700" y="45" width="30" height="60" as="geometry" />
        </mxCell>
        <mxCell id="ZZL85fekvjRniKEB7ra7-57" value="" style="endArrow=none;html=1;rounded=0;entryX=0.975;entryY=0.708;entryDx=0;entryDy=0;entryPerimeter=0;" edge="1" parent="1" source="ZZL85fekvjRniKEB7ra7-56" target="ZZL85fekvjRniKEB7ra7-40">
          <mxGeometry width="50" height="50" relative="1" as="geometry">
            <mxPoint x="710" y="260" as="sourcePoint" />
            <mxPoint x="760" y="210" as="targetPoint" />
          </mxGeometry>
        </mxCell>
        <mxCell id="ZZL85fekvjRniKEB7ra7-58" value="" style="endArrow=none;html=1;rounded=0;entryX=1.003;entryY=0.468;entryDx=0;entryDy=0;entryPerimeter=0;" edge="1" parent="1" source="ZZL85fekvjRniKEB7ra7-56" target="ZZL85fekvjRniKEB7ra7-41">
          <mxGeometry width="50" height="50" relative="1" as="geometry">
            <mxPoint x="700" y="273" as="sourcePoint" />
            <mxPoint x="560" y="70" as="targetPoint" />
          </mxGeometry>
        </mxCell>
        <mxCell id="ZZL85fekvjRniKEB7ra7-60" value="" style="endArrow=none;html=1;rounded=0;entryX=1.023;entryY=0.548;entryDx=0;entryDy=0;entryPerimeter=0;" edge="1" parent="1" source="ZZL85fekvjRniKEB7ra7-56" target="ZZL85fekvjRniKEB7ra7-10">
          <mxGeometry width="50" height="50" relative="1" as="geometry">
            <mxPoint x="700" y="320" as="sourcePoint" />
            <mxPoint x="564" y="171" as="targetPoint" />
          </mxGeometry>
        </mxCell>
        <mxCell id="ZZL85fekvjRniKEB7ra7-61" value="" style="endArrow=none;html=1;rounded=0;entryX=0.976;entryY=0.295;entryDx=0;entryDy=0;entryPerimeter=0;" edge="1" parent="1" source="ZZL85fekvjRniKEB7ra7-56" target="ZZL85fekvjRniKEB7ra7-11">
          <mxGeometry width="50" height="50" relative="1" as="geometry">
            <mxPoint x="670" y="320" as="sourcePoint" />
            <mxPoint x="584" y="310" as="targetPoint" />
          </mxGeometry>
        </mxCell>
        <mxCell id="ZZL85fekvjRniKEB7ra7-65" value="" style="endArrow=none;html=1;rounded=0;entryX=0;entryY=0.5;entryDx=0;entryDy=0;" edge="1" parent="1" source="ZZL85fekvjRniKEB7ra7-50" target="ZZL85fekvjRniKEB7ra7-41">
          <mxGeometry width="50" height="50" relative="1" as="geometry">
            <mxPoint x="430" y="300" as="sourcePoint" />
            <mxPoint x="480" y="250" as="targetPoint" />
          </mxGeometry>
        </mxCell>
        <mxCell id="ZZL85fekvjRniKEB7ra7-66" value="" style="endArrow=none;html=1;rounded=0;entryX=0;entryY=0.5;entryDx=0;entryDy=0;" edge="1" parent="1" source="ZZL85fekvjRniKEB7ra7-50" target="ZZL85fekvjRniKEB7ra7-10">
          <mxGeometry width="50" height="50" relative="1" as="geometry">
            <mxPoint x="430" y="300" as="sourcePoint" />
            <mxPoint x="480" y="250" as="targetPoint" />
          </mxGeometry>
        </mxCell>
        <mxCell id="ZZL85fekvjRniKEB7ra7-67" value="" style="endArrow=none;html=1;rounded=0;entryX=0;entryY=0.25;entryDx=0;entryDy=0;entryPerimeter=0;" edge="1" parent="1" source="ZZL85fekvjRniKEB7ra7-50" target="ZZL85fekvjRniKEB7ra7-11">
          <mxGeometry width="50" height="50" relative="1" as="geometry">
            <mxPoint x="430" y="300" as="sourcePoint" />
            <mxPoint x="480" y="250" as="targetPoint" />
          </mxGeometry>
        </mxCell>
        <mxCell id="ZZL85fekvjRniKEB7ra7-69" value="" style="endArrow=none;html=1;rounded=0;entryX=0;entryY=0.5;entryDx=0;entryDy=0;" edge="1" parent="1" source="ZZL85fekvjRniKEB7ra7-50" target="ZZL85fekvjRniKEB7ra7-40">
          <mxGeometry width="50" height="50" relative="1" as="geometry">
            <mxPoint x="430" y="230" as="sourcePoint" />
            <mxPoint x="480" y="180" as="targetPoint" />
          </mxGeometry>
        </mxCell>
        <mxCell id="ZZL85fekvjRniKEB7ra7-73" value="Program" style="shape=umlActor;verticalLabelPosition=bottom;verticalAlign=top;html=1;outlineConnect=0;" vertex="1" parent="1">
          <mxGeometry x="700" y="260" width="30" height="60" as="geometry" />
        </mxCell>
        <mxCell id="ZZL85fekvjRniKEB7ra7-74" value="" style="endArrow=none;html=1;rounded=0;entryX=0.976;entryY=0.657;entryDx=0;entryDy=0;entryPerimeter=0;" edge="1" parent="1" source="ZZL85fekvjRniKEB7ra7-73" target="ZZL85fekvjRniKEB7ra7-41">
          <mxGeometry width="50" height="50" relative="1" as="geometry">
            <mxPoint x="430" y="230" as="sourcePoint" />
            <mxPoint x="480" y="180" as="targetPoint" />
          </mxGeometry>
        </mxCell>
        <mxCell id="ZZL85fekvjRniKEB7ra7-75" value="" style="endArrow=none;html=1;rounded=0;exitX=1.011;exitY=0.575;exitDx=0;exitDy=0;exitPerimeter=0;" edge="1" parent="1" source="ZZL85fekvjRniKEB7ra7-10" target="ZZL85fekvjRniKEB7ra7-73">
          <mxGeometry width="50" height="50" relative="1" as="geometry">
            <mxPoint x="430" y="230" as="sourcePoint" />
            <mxPoint x="480" y="180" as="targetPoint" />
          </mxGeometry>
        </mxCell>
        <mxCell id="ZZL85fekvjRniKEB7ra7-76" value="" style="endArrow=none;html=1;rounded=0;exitX=0.971;exitY=0.338;exitDx=0;exitDy=0;exitPerimeter=0;" edge="1" parent="1" source="ZZL85fekvjRniKEB7ra7-11" target="ZZL85fekvjRniKEB7ra7-73">
          <mxGeometry width="50" height="50" relative="1" as="geometry">
            <mxPoint x="430" y="230" as="sourcePoint" />
            <mxPoint x="480" y="180" as="targetPoint" />
          </mxGeometry>
        </mxCell>
      </root>
    </mxGraphModel>
  </diagram>
</mxfile>
